<svg xmlns:dc="http://purl.org/dc/elements/1.1/" xmlns:cc="http://creativecommons.org/ns#" xmlns:rdf="http://www.w3.org/1999/02/22-rdf-syntax-ns#" xmlns:svg="http://www.w3.org/2000/svg" xmlns="http://www.w3.org/2000/svg" xmlns:sodipodi="http://sodipodi.sourceforge.net/DTD/sodipodi-0.dtd" xmlns:inkscape="http://www.inkscape.org/namespaces/inkscape" version="1.1" x="0px" y="0px" viewBox="0 0 100 100"><g transform="translate(0,-952.36218)"><path style="text-indent:0;text-transform:none;direction:ltr;block-progression:tb;baseline-shift:baseline;color:#000000;enable-background:accumulate;" d="m 5.999998,960.36217 0,84.00003 c 1e-4,1.0472 0.95283,1.9999 2,2 l 84.000004,0 c 1.04717,-10e-5 1.9999,-0.9528 2,-2 l 0,-84.00003 c -10e-5,-1.04717 -0.95283,-1.9999 -2,-2 l -84.000004,0 c -1.09031,0.0315 -1.97542,1.09911 -2,2 z m 4,2 80.000004,0 0,80.00003 -80.000004,0 z m 68.875,18 c -0.53627,0.044 -1.09729,0.39507 -1.3125,0.65625 -10.7952,11.29457 -24.85593,27.17778 -35.78125,38.68748 l -15.5625,-11.9062 c -0.83449,-0.6382 -2.17436,-0.4595 -2.8125,0.375 -0.63814,0.8345 -0.45949,2.1743 0.375,2.8125 l 17,13 c 0.77581,0.5861 1.98678,0.4864 2.65625,-0.2188 11.16222,-11.6783 25.93991,-28.42821 37.000004,-39.99998 0.5708,-0.57325 0.73796,-1.50999 0.40067,-2.24529 -0.3373,-0.7353 -1.156334,-1.21965 -1.963174,-1.16096 z" fill="#000000" fill-opacity="1" stroke="none" marker="none" visibility="visible" display="inline" overflow="visible"/></g></svg>
